<svg xmlns="http://www.w3.org/2000/svg" viewBox="0 0 24 24" width="24" height="24"><path d="M22 7h-7v-2h7v2zm1.726 10c-.442 1.297-2.029 3-5.101 3-3.074 0-5.564-1.729-5.564-5.675 0-3.91 2.325-5.92 5.466-5.92 3.082 0 4.964 1.782 5.375 4.303.013.097.024.197.024.295v.197h-8.378c.128 1.753 1.467 2.635 3.006 2.635 1.122 0 2.105-.497 2.689-1.222h2.189zm-8.135-4.648h5.628c-.08-1.323-1.016-2.132-2.371-2.132-1.461 0-2.543.887-2.543 2.132h-.714zm-10.814-5.697h4.566c1.101 0 1.91.841 1.91 2.132s-.809 2.132-1.91 2.132h-4.566v-4.264zm0 6.697h4.566c1.101 0 1.91.841 1.91 2.132s-.809 2.132-1.91 2.132h-4.566v-4.264z"/></svg>